<?xml version="1.0" standalone="no"?>
<!DOCTYPE svg PUBLIC "-//W3C//DTD SVG 20010904//EN"
 "http://www.w3.org/TR/2001/REC-SVG-20010904/DTD/svg10.dtd">
<svg version="1.0" xmlns="http://www.w3.org/2000/svg"
 width="150.000000pt" height="150.000000pt" viewBox="0 0 150.000000 150.000000"
 preserveAspectRatio="xMidYMid meet">

<g transform="translate(0.000000,150.000000) scale(0.100000,-0.100000)"
fill="#000000" stroke="none">
<path d="M300 1000 c0 -91 -3 -110 -15 -110 -12 0 -15 14 -15 70 l0 70 -60 0
-60 0 0 -205 0 -205 -25 0 c-16 0 -25 -6 -25 -15 0 -13 25 -15 163 -15 89 0
379 -3 645 -7 445 -6 482 -5 482 10 0 13 -9 17 -40 17 -31 0 -38 3 -34 15 5
11 0 14 -17 13 -19 -3 -25 5 -39 52 -9 31 -24 67 -32 80 -17 26 -8 77 11 65
11 -6 41 32 41 52 0 19 -18 16 -22 -4 -3 -14 -8 -10 -20 15 -9 17 -12 32 -7
32 6 0 9 12 7 28 -5 41 -49 43 -77 4 -11 -16 -17 -33 -13 -37 4 -5 1 -5 -6 -1
-9 5 -15 1 -19 -13 -12 -45 -37 -4 -34 55 2 21 -3 33 -14 38 -22 8 -35 -1 -35
-25 0 -15 -7 -19 -37 -19 -49 0 -61 -9 -73 -51 -14 -47 -13 -59 5 -59 8 0 15
9 15 19 0 33 11 51 31 51 22 0 25 -27 5 -55 -7 -11 -16 -32 -20 -47 -7 -31
-80 -120 -107 -130 -15 -6 -16 -12 -9 -37 l9 -31 -321 0 -320 0 7 43 c19 123
56 199 136 283 33 33 56 64 52 67 -3 4 5 7 20 7 14 0 29 5 32 10 4 6 -8 10
-29 10 -33 0 -36 2 -36 29 0 32 -14 41 -66 41 l-34 0 0 -110z m50 50 c0 -20
-5 -30 -15 -30 -10 0 -15 10 -15 30 0 20 5 30 15 30 10 0 15 -10 15 -30z
m-160 -70 c0 -20 -5 -30 -15 -30 -10 0 -15 10 -15 30 0 20 5 30 15 30 10 0 15
-10 15 -30z m17 -17 c-3 -10 -5 -2 -5 17 0 19 2 27 5 18 2 -10 2 -26 0 -35z
m120 -15 c-2 -13 -4 -5 -4 17 -1 22 1 32 4 23 2 -10 2 -28 0 -40z m-137 -68
c0 -20 -5 -30 -15 -30 -10 0 -15 10 -15 30 0 20 5 30 15 30 10 0 15 -10 15
-30z m904 -5 c3 -8 12 -15 20 -15 30 0 51 -61 35 -101 -8 -20 -17 -25 -45 -26
-34 -1 -35 -1 -14 14 15 11 18 18 11 27 -6 7 -9 16 -6 19 3 4 2 5 -2 2 -3 -3
-17 4 -29 16 -21 20 -21 22 -6 50 19 33 27 36 36 14z m66 -5 c0 -5 -2 -10 -4
-10 -3 0 -8 5 -11 10 -3 6 -1 10 4 10 6 0 11 -4 11 -10z m-143 -122 c-24 -15
-37 -8 -19 10 11 11 20 14 24 8 4 -6 2 -14 -5 -18z m195 -25 c16 -19 40 -94
33 -101 -9 -9 -105 -14 -105 -6 0 5 -58 8 -130 6 -73 -2 -130 1 -130 6 0 15
44 74 66 89 19 12 20 12 16 -17 -5 -36 3 -38 28 -7 l19 22 -6 -22 c-6 -26 21
-33 31 -8 4 11 21 15 59 15 41 0 58 5 72 20 22 24 28 25 47 3z"/>
<path d="M695 869 c-4 -6 -5 -12 -2 -15 2 -3 7 2 10 11 7 17 1 20 -8 4z"/>
<path d="M220 555 c0 -10 10 -15 30 -15 20 0 30 5 30 15 0 10 -10 15 -30 15
-20 0 -30 -5 -30 -15z"/>
<path d="M310 555 c0 -8 9 -15 20 -15 11 0 20 7 20 15 0 8 -9 15 -20 15 -11 0
-20 -7 -20 -15z"/>
<path d="M377 563 c-15 -14 -6 -23 23 -23 20 0 30 5 30 15 0 15 -40 21 -53 8z"/>
<path d="M467 563 c-13 -12 -7 -23 13 -23 11 0 20 7 20 15 0 15 -21 21 -33 8z"/>
<path d="M530 555 c0 -10 10 -15 30 -15 20 0 30 5 30 15 0 10 -10 15 -30 15
-20 0 -30 -5 -30 -15z"/>
<path d="M620 556 c0 -10 9 -16 21 -16 24 0 21 23 -4 28 -10 2 -17 -3 -17 -12z"/>
<path d="M690 556 c0 -11 10 -16 31 -16 38 0 35 24 -4 28 -19 2 -27 -1 -27
-12z"/>
<path d="M780 555 c0 -8 7 -15 15 -15 8 0 15 7 15 15 0 8 -7 15 -15 15 -8 0
-15 -7 -15 -15z"/>
<path d="M845 562 c-13 -13 -3 -22 25 -22 17 0 30 4 30 9 0 10 -47 21 -55 13z"/>
<path d="M930 550 c0 -5 9 -10 20 -10 11 0 20 5 20 10 0 6 -9 10 -20 10 -11 0
-20 -4 -20 -10z"/>
<path d="M1000 550 c0 -5 14 -10 30 -10 17 0 30 5 30 10 0 6 -13 10 -30 10
-16 0 -30 -4 -30 -10z"/>
<path d="M1090 550 c0 -5 7 -10 15 -10 8 0 15 5 15 10 0 6 -7 10 -15 10 -8 0
-15 -4 -15 -10z"/>
<path d="M1150 550 c0 -5 14 -10 30 -10 17 0 30 5 30 10 0 6 -13 10 -30 10
-16 0 -30 -4 -30 -10z"/>
<path d="M1250 550 c0 -5 7 -10 15 -10 8 0 15 5 15 10 0 6 -7 10 -15 10 -8 0
-15 -4 -15 -10z"/>
<path d="M160 507 c0 -16 33 -17 393 -17 215 0 483 -3 595 -7 184 -6 202 -5
202 10 0 15 -23 17 -233 17 -129 0 -396 3 -595 7 -333 6 -362 5 -362 -10z"/>
</g>
</svg>
